<?xml version="1.0" encoding="iso-8859-1"?>
<!-- Generator: Adobe Illustrator 19.0.0, SVG Export Plug-In . SVG Version: 6.00 Build 0)  -->
<svg version="1.1" id="Capa_1" xmlns="http://www.w3.org/2000/svg" xmlns:xlink="http://www.w3.org/1999/xlink" x="0px" y="0px"
	 viewBox="0 0 512 512" style="enable-background:new 0 0 512 512;" xml:space="preserve">
<g>
	<g>
		<g>
			<path d="M486.4,170.664H375.927c9.492-5.194,15.733-14.815,16.606-25.6V76.798c0-39.253-98.731-59.733-196.267-59.733
				S0,37.544,0,76.798v68.267c0,13.193,10.761,24.619,31.872,34.133C10.761,188.712,0,200.147,0,213.331v68.267
				c0,13.193,10.761,24.619,31.872,34.133C10.761,325.246,0,336.68,0,349.864v68.267c0,39.253,98.731,59.733,196.267,59.733
				c46.513,0.664,92.911-4.81,137.993-16.282c14.035,12.272,29.29,23.074,45.525,32.239c2.614,1.485,5.817,1.485,8.431,0
				C510.592,424.369,512,310.432,512,305.611V196.264C512,182.126,500.539,170.664,486.4,170.664z M196.267,34.131
				c109.389,0,179.2,25.267,179.2,42.667s-69.811,42.667-179.2,42.667s-179.2-25.267-179.2-42.667S86.878,34.131,196.267,34.131z
				 M17.067,145.064v-42.317c32.427,22.263,106.129,33.783,179.2,33.783s146.773-11.52,179.2-33.783v42.317
				c0,6.042-10.752,16.324-40.713,25.6H281.6c-9.598,0.034-18.366,5.447-22.699,14.012c-20.412,1.954-41.412,3.055-62.635,3.055
				c-46.347,0.805-92.582-4.815-137.387-16.7C28.015,161.662,17.067,151.191,17.067,145.064z M56.653,188.107
				c45.58,11.791,92.538,17.405,139.614,16.691c20.207,0,40.192-1.058,59.733-2.799v51.26c-18.842,1.783-38.844,2.739-59.733,2.739
				c-109.389,0-179.2-25.267-179.2-42.667C17.067,207.358,27.605,197.28,56.653,188.107z M17.067,281.598v-42.317
				c32.427,22.263,106.129,33.783,179.2,33.783c20.83,0,40.832-0.93,59.733-2.662v35.209c0.103,5.243,0.522,10.475,1.254,15.667
				c-19.772,1.869-40.107,2.987-60.988,2.987c-46.347,0.805-92.582-4.815-137.387-16.7
				C28.015,298.195,17.067,287.725,17.067,281.598z M56.653,324.64c45.58,11.791,92.538,17.405,139.614,16.691
				c21.845,0,43.247-1.178,64-3.174c3.766,17.001,9.493,33.507,17.067,49.186c-26.882,3.477-53.961,5.21-81.067,5.188
				c-109.389,0-179.2-25.267-179.2-42.667C17.067,343.891,27.605,333.813,56.653,324.64z M196.267,460.798
				c-109.389,0-179.2-25.267-179.2-42.667v-42.317c32.427,22.263,106.129,33.783,179.2,33.783
				c29.992,0.051,59.95-2.016,89.651-6.187c9.473,16.119,20.853,31.037,33.894,44.433
				C279.267,456.906,237.81,461.253,196.267,460.798z M494.933,305.602c0,4.361-1.647,106.385-110.933,170.94
				c-35.669-20.34-65.213-49.895-85.538-85.572c-0.277-0.712-0.654-1.381-1.118-1.988c-10.369-18.932-17.695-39.378-21.709-60.587
				c0-0.102,0-0.196,0-0.299c0-0.102-0.145-0.367-0.179-0.572c-1.382-7.229-2.181-14.557-2.389-21.914V196.264
				c0-4.713,3.82-8.533,8.533-8.533h204.8c4.713,0,8.533,3.82,8.533,8.533V305.602z"/>
			<path d="M460.8,204.798c-4.713,0-8.533,3.82-8.533,8.533s3.821,8.533,8.533,8.533v83.627c-0.051,3.217-2.176,79.548-81.604,133.7
				c-2.612,1.677-4.108,4.641-3.904,7.739s2.073,5.841,4.882,7.163c2.809,1.322,6.115,1.013,8.631-0.805
				c86.656-59.051,89.003-143.957,89.062-147.678v-83.746C477.867,212.439,470.226,204.798,460.8,204.798z"/>
			<path d="M307.2,305.611v-83.746h93.867c4.713,0,8.533-3.82,8.533-8.533s-3.82-8.533-8.533-8.533H307.2
				c-9.426,0-17.067,7.641-17.067,17.067v83.746c2.396,34.912,14.81,68.392,35.755,96.427c2.766,3.817,8.104,4.669,11.921,1.903
				c3.817-2.766,4.669-8.104,1.903-11.921C320.929,366.866,309.656,336.906,307.2,305.611z"/>
			<path d="M441.233,265.965c-3.332-3.331-8.734-3.331-12.066,0l-63.3,63.3l-9.967-9.967c-3.348-3.234-8.671-3.188-11.962,0.104
				c-3.292,3.292-3.338,8.614-0.104,11.962l16,16c3.332,3.331,8.734,3.331,12.066,0l69.333-69.333
				C444.564,274.699,444.564,269.297,441.233,265.965z"/>
		</g>
	</g>
</g>
<g>
</g>
<g>
</g>
<g>
</g>
<g>
</g>
<g>
</g>
<g>
</g>
<g>
</g>
<g>
</g>
<g>
</g>
<g>
</g>
<g>
</g>
<g>
</g>
<g>
</g>
<g>
</g>
<g>
</g>
</svg>
