<?xml version="1.0" encoding="iso-8859-1"?>
<!-- Generator: Adobe Illustrator 19.0.0, SVG Export Plug-In . SVG Version: 6.00 Build 0)  -->
<svg version="1.1" id="Layer_1" xmlns="http://www.w3.org/2000/svg" xmlns:xlink="http://www.w3.org/1999/xlink" x="0px" y="0px"
	 viewBox="0 0 512 512" style="enable-background:new 0 0 512 512;" xml:space="preserve">
<path style="fill:#8CC153;" d="M354.732,340.891l-94.82-101.156V95.75L355.889,96l0,0h0.016c5.891,0,10.672-4.781,10.672-10.656
	c0-5.891-4.766-10.656-10.641-10.672v-0.016l-96.023-0.25v-63.75C259.912,4.781,255.131,0,249.241,0s-10.664,4.781-10.664,10.656
	v63.703l-31.969-0.078c-0.141,0-0.273,0-0.406,0c-32.68,0-55.156,10.312-63.312,29.062c-8.188,18.844-0.305,42.438,22.195,66.438
	l73.492,78.391v167.156h-96c-5.891,0-10.664,4.781-10.664,10.672s4.773,10.672,10.664,10.672h96v64.656
	c0,5.891,4.773,10.672,10.664,10.672s10.671-4.781,10.671-10.672v-64.656h53.336c32.891,0,55.5-10.406,63.688-29.297
	C385.123,388.5,377.232,364.875,354.732,340.891z M180.647,155.188c-15.844-16.906-22.641-33.094-18.188-43.328
	c4.422-10.188,20.766-16.25,43.75-16.25c0.109,0,0.227,0,0.336,0l32.031,0.078v121.297L180.647,155.188z M357.357,398.906
	c-4.453,10.281-20.953,16.422-44.109,16.422h-53.336V270.922l79.258,84.562C355.014,372.375,361.811,388.609,357.357,398.906z"/>
<g>
</g>
<g>
</g>
<g>
</g>
<g>
</g>
<g>
</g>
<g>
</g>
<g>
</g>
<g>
</g>
<g>
</g>
<g>
</g>
<g>
</g>
<g>
</g>
<g>
</g>
<g>
</g>
<g>
</g>
</svg>
