<?xml version="1.0" encoding="iso-8859-1"?>
<!-- Generator: Adobe Illustrator 19.0.0, SVG Export Plug-In . SVG Version: 6.00 Build 0)  -->
<svg version="1.1" id="Layer_1" xmlns="http://www.w3.org/2000/svg" xmlns:xlink="http://www.w3.org/1999/xlink" x="0px" y="0px"
	 viewBox="0 0 495 495" style="enable-background:new 0 0 495 495;" xml:space="preserve">
<g>
	<path style="fill:#2488FF;" d="M283.327,237.843l-15.827-4.999V67.578c33.812,8.876,58.829,39.694,58.829,76.251h40
		c0-58.708-42.797-107.6-98.829-117.137V0h-40v26.692c-56.032,9.537-98.829,58.43-98.829,117.137
		c0,56.987,28.702,96.175,83.002,113.327l15.827,5v165.266c-33.812-8.876-58.829-39.694-58.829-76.251h-40
		c0,58.708,42.797,107.6,98.829,117.137V495h40v-26.692c56.032-9.537,98.829-58.43,98.829-117.137
		C366.329,294.184,337.627,254.996,283.327,237.843z M223.722,219.015c-37.558-11.864-55.051-35.755-55.051-75.185
		c0-36.558,25.018-67.376,58.829-76.251v152.63L223.722,219.015z M267.5,427.422v-152.63l3.778,1.194
		c37.558,11.864,55.051,35.755,55.051,75.185C326.329,387.728,301.312,418.546,267.5,427.422z"/>
</g>
<g>
</g>
<g>
</g>
<g>
</g>
<g>
</g>
<g>
</g>
<g>
</g>
<g>
</g>
<g>
</g>
<g>
</g>
<g>
</g>
<g>
</g>
<g>
</g>
<g>
</g>
<g>
</g>
<g>
</g>
</svg>
