<?xml version="1.0" encoding="iso-8859-1"?>
<!-- Generator: Adobe Illustrator 19.0.0, SVG Export Plug-In . SVG Version: 6.00 Build 0)  -->
<svg version="1.1" id="Layer_1" xmlns="http://www.w3.org/2000/svg" xmlns:xlink="http://www.w3.org/1999/xlink" x="0px" y="0px"
	 viewBox="0 0 445 445" style="enable-background:new 0 0 445 445;" xml:space="preserve">
<path style="fill:#2488FF;" d="M238.142,405c-43.523,0-78.933-35.409-78.933-78.932V280.21h154.962v-40H159.209v-30h154.962v-40
	H159.209v-51.278c0-43.523,35.409-78.932,78.933-78.932s78.932,35.409,78.932,78.932h40C357.074,53.353,303.722,0,238.142,0
	S119.209,53.353,119.209,118.932v51.278h-30v40h30v30H87.926v40h31.284v45.857c0,65.579,53.353,118.932,118.933,118.932
	s118.932-53.353,118.932-118.932h-40C317.074,369.591,281.666,405,238.142,405z"/>
<g>
</g>
<g>
</g>
<g>
</g>
<g>
</g>
<g>
</g>
<g>
</g>
<g>
</g>
<g>
</g>
<g>
</g>
<g>
</g>
<g>
</g>
<g>
</g>
<g>
</g>
<g>
</g>
<g>
</g>
</svg>
