<?xml version="1.0" encoding="iso-8859-1"?>
<!-- Generator: Adobe Illustrator 19.0.0, SVG Export Plug-In . SVG Version: 6.00 Build 0)  -->
<svg version="1.1" id="Layer_1" xmlns="http://www.w3.org/2000/svg" xmlns:xlink="http://www.w3.org/1999/xlink" x="0px" y="0px"
	 viewBox="0 0 512 512" style="enable-background:new 0 0 512 512;" xml:space="preserve">
<path style="fill:#4A89DC;" d="M432.003,461.985c-1.703,0-3.312,0.406-4.719,1.109h-0.016
	c-1.156,0.562-117.141,56.875-197.711,6.828c-41.875-26-67.453-76.312-76.383-149.922h193.485c5.906,0,10.672-4.781,10.672-10.656
	c0-5.906-4.766-10.672-10.672-10.672H151.097c-1.008-13.531-1.516-27.75-1.516-42.672h207.75c5.891,0,10.672-4.781,10.672-10.656
	c0-5.906-4.781-10.672-10.672-10.672H149.948c3.344-97.047,30.055-161.797,79.531-192.547
	c18.211-11.343,39.743-18.108,63.993-20.124c19.781-1.656,41.406-0.188,64.297,4.391c39.281,7.844,68.922,22.266,69.5,22.547
	c0.016,0,0.016,0,0.016,0l0,0c1.422,0.703,3.016,1.109,4.719,1.109c5.891,0,10.656-4.766,10.656-10.672
	c0-4.188-2.406-7.812-5.938-9.547v-0.016c-1.281-0.625-32.109-15.75-74.188-24.219c-24.906-5.031-48.625-6.688-70.453-4.891
	c-27.766,2.266-52.594,10.078-73.789,23.234c-56.039,34.812-86.164,105.656-89.688,210.734h-37.93
	c-5.891,0-10.672,4.766-10.672,10.672c0,5.875,4.781,10.656,10.672,10.656h37.578c0,14.844,0.492,29.078,1.469,42.672H80.003
	c-5.891,0-10.664,4.766-10.664,10.672c0,5.875,4.773,10.656,10.664,10.656h51.711c9.5,81.781,38.508,138.188,86.586,168.047
	c21.195,13.172,46.016,20.984,73.781,23.266c5.703,0.469,11.531,0.688,17.484,0.688c16.812,0,34.562-1.859,52.969-5.562
	c42.078-8.484,72.906-23.594,74.188-24.219v-0.016c3.516-1.734,5.938-5.359,5.938-9.547
	C442.659,466.751,437.894,461.985,432.003,461.985z"/>
<g>
</g>
<g>
</g>
<g>
</g>
<g>
</g>
<g>
</g>
<g>
</g>
<g>
</g>
<g>
</g>
<g>
</g>
<g>
</g>
<g>
</g>
<g>
</g>
<g>
</g>
<g>
</g>
<g>
</g>
</svg>
