<?xml version="1.0" encoding="iso-8859-1"?>
<!-- Generator: Adobe Illustrator 19.0.0, SVG Export Plug-In . SVG Version: 6.00 Build 0)  -->
<svg version="1.1" id="Layer_1" xmlns="http://www.w3.org/2000/svg" xmlns:xlink="http://www.w3.org/1999/xlink" x="0px" y="0px"
	 viewBox="0 0 512.001 512.001" style="enable-background:new 0 0 512.001 512.001;" xml:space="preserve">
<path style="fill:#4FC2E9;" d="M432.191,490.125c0-5.875-4.766-10.656-10.656-10.656c-1.422,0-2.781,0.281-4.031,0.781l0,0
	c-0.141,0.062-15.562,6.219-40.688,9c-23.094,2.562-59.406,2.719-101.281-11.031c-41.75-13.688-76.234-11.469-99.734-6.188V298.656
	h191.984c5.891,0,10.656-4.781,10.656-10.688c0-5.875-4.766-10.656-10.656-10.656H175.801V106.844
	c0.062-1.484,1.25-22.516,15.453-43c8.469-12.219,19.945-21.953,34.117-28.953c18.195-8.984,40.992-13.547,67.758-13.547
	c26.75,0,49.562,4.562,67.766,13.547c14.172,7,25.672,16.75,34.141,28.953c14.672,21.156,15.5,42.875,15.5,43.094l0,0
	c0.156,5.75,4.859,10.391,10.656,10.391c5.891,0,10.672-4.766,10.672-10.672c0-0.062-0.016-0.156-0.016-0.219l0,0
	c-0.016-1.109-0.781-27.438-18.594-53.75c-10.5-15.469-24.656-27.766-42.156-36.547C349.785,5.438,323.551,0,293.129,0
	c-30.438,0-56.656,5.438-77.953,16.141c-17.5,8.797-31.672,21.078-42.141,36.547c-17.805,26.312-18.539,52.656-18.562,53.75v0.125
	v170.75h-64c-5.891,0-10.664,4.781-10.664,10.656c0,5.906,4.773,10.688,10.664,10.688h64v179.766
	c-17.242,6.578-26.906,13.859-27.391,14.234v0.016c-2.547,1.953-4.195,5.016-4.195,8.453c0,5.906,4.781,10.688,10.672,10.688
	c2.414,0,4.641-0.844,6.438-2.188l0,0c0.125-0.078,12.695-9.406,34.766-15.375c29.5-8,61.18-6.562,94.117,4.25
	c31.031,10.172,59.297,13.5,83.031,13.5c43.594,0,71.875-11.25,73.672-12l0,0C429.457,498.406,432.191,494.594,432.191,490.125z"/>
<g>
</g>
<g>
</g>
<g>
</g>
<g>
</g>
<g>
</g>
<g>
</g>
<g>
</g>
<g>
</g>
<g>
</g>
<g>
</g>
<g>
</g>
<g>
</g>
<g>
</g>
<g>
</g>
<g>
</g>
</svg>
