<?xml version="1.0" encoding="iso-8859-1"?>
<!-- Generator: Adobe Illustrator 19.0.0, SVG Export Plug-In . SVG Version: 6.00 Build 0)  -->
<svg version="1.1" id="Layer_1" xmlns="http://www.w3.org/2000/svg" xmlns:xlink="http://www.w3.org/1999/xlink" x="0px" y="0px"
	 viewBox="0 0 512 512" style="enable-background:new 0 0 512 512;" xml:space="preserve">
<path style="fill:#FC6E51;" d="M288,320c88.359,0,160-71.625,160-160S376.359,0,288,0c-0.016,0-0.016,0-0.031,0H117.328l0,0l0,0
	c-5.891,0-10.656,4.781-10.656,10.656v288h-32c-5.891,0-10.672,4.781-10.672,10.688C64,315.219,68.781,320,74.672,320h32v42.656h-32
	c-5.891,0-10.672,4.781-10.672,10.688C64,379.219,68.781,384,74.672,384h32v117.344c0,5.875,4.766,10.656,10.656,10.656
	S128,507.219,128,501.344V384h181.328c5.891,0,10.672-4.781,10.672-10.656c0-5.906-4.781-10.688-10.672-10.688H128V320H288z
	 M128,21.344h159.969H288c18.734,0,36.891,3.656,53.969,10.875c16.516,6.984,31.344,16.984,44.078,29.719
	c12.75,12.75,22.75,27.594,29.734,44.094c7.219,17.078,10.891,35.25,10.891,53.969S423,196.892,415.781,213.97
	c-6.984,16.5-16.984,31.344-29.734,44.094c-12.734,12.734-27.562,22.734-44.078,29.719C324.891,295,306.734,298.656,288,298.656H128
	V21.344z"/>
<g>
</g>
<g>
</g>
<g>
</g>
<g>
</g>
<g>
</g>
<g>
</g>
<g>
</g>
<g>
</g>
<g>
</g>
<g>
</g>
<g>
</g>
<g>
</g>
<g>
</g>
<g>
</g>
<g>
</g>
</svg>
