<?xml version="1.0" encoding="iso-8859-1"?>
<!-- Generator: Adobe Illustrator 19.0.0, SVG Export Plug-In . SVG Version: 6.00 Build 0)  -->
<svg version="1.1" id="Layer_1" xmlns="http://www.w3.org/2000/svg" xmlns:xlink="http://www.w3.org/1999/xlink" x="0px" y="0px"
	 viewBox="0 0 512 512" style="enable-background:new 0 0 512 512;" xml:space="preserve">
<path style="fill:#DA4453;" d="M425.32,15.844c0.859-1.531,1.344-3.297,1.344-5.188C426.664,4.781,421.898,0,416.008,0
	c-4.016,0-7.5,2.219-9.328,5.484l0,0l-0.047,0.062c0,0.016,0,0.047-0.016,0.047L256,276.703L105.398,5.609
	c-0.016-0.016-0.023-0.047-0.039-0.078l-0.031-0.047l0,0C103.508,2.219,100.016,0,96.008,0c-5.891,0-10.672,4.781-10.672,10.656
	c0,1.891,0.492,3.656,1.344,5.188l0,0l145.273,261.5h-93.281C132.781,277.344,128,282.11,128,288s4.781,10.656,10.672,10.656
	h105.133l1.531,2.781v61.219H138.672c-5.891,0-10.672,4.781-10.672,10.688c0,5.875,4.781,10.656,10.672,10.656h106.664v117.344
	c0,5.875,4.773,10.656,10.664,10.656c5.898,0,10.664-4.781,10.664-10.656V384h106.672c5.891,0,10.672-4.781,10.672-10.656
	c0-5.906-4.781-10.688-10.672-10.688H266.664v-61.219l1.531-2.781h105.141c5.891,0,10.672-4.766,10.672-10.656
	s-4.781-10.656-10.672-10.656h-93.281L425.32,15.844L425.32,15.844z"/>
<g>
</g>
<g>
</g>
<g>
</g>
<g>
</g>
<g>
</g>
<g>
</g>
<g>
</g>
<g>
</g>
<g>
</g>
<g>
</g>
<g>
</g>
<g>
</g>
<g>
</g>
<g>
</g>
<g>
</g>
</svg>
