<?xml version="1.0" encoding="iso-8859-1"?>
<!-- Generator: Adobe Illustrator 19.0.0, SVG Export Plug-In . SVG Version: 6.00 Build 0)  -->
<svg version="1.1" id="Capa_1" xmlns="http://www.w3.org/2000/svg" xmlns:xlink="http://www.w3.org/1999/xlink" x="0px" y="0px"
	 viewBox="0 0 512 512" style="enable-background:new 0 0 512 512;" xml:space="preserve">
<g>
	<g>
		<path d="M403.182,57.265C360.395,25.573,309.619,8.828,256.344,8.828c-48.578,0-96.839,13.983-132.758,37.976V8.828
			c0-4.873-3.955-8.828-8.828-8.828c-4.873,0-8.828,3.955-8.828,8.828v55.534c0,3.425,1.977,6.541,5.076,7.989
			c3.098,1.457,6.762,0.989,9.393-1.201c33.668-27.966,84.489-44.668,135.945-44.668c49.461,0,96.6,15.554,136.333,44.977
			c1.58,1.165,3.416,1.73,5.244,1.73c2.701,0,5.367-1.236,7.097-3.575C407.923,65.695,407.102,60.169,403.182,57.265z"/>
	</g>
</g>
<g>
	<g>
		<path d="M503.172,105.931h-55.534c-3.425,0-6.524,1.986-7.98,5.085c-1.457,3.098-0.989,6.762,1.201,9.393
			c27.966,33.66,44.668,84.48,44.668,135.945c0,49.461-15.554,96.6-44.977,136.324c-2.904,3.919-2.083,9.445,1.836,12.35
			c1.58,1.165,3.416,1.73,5.244,1.73c2.701,0,5.367-1.236,7.106-3.575c31.691-42.787,48.437-93.564,48.437-146.838
			c0-48.578-13.983-96.847-37.976-132.758h37.976c4.873,0,8.828-3.955,8.828-8.828C512,109.886,508.045,105.931,503.172,105.931z"/>
	</g>
</g>
<g>
	<g>
		<path d="M401.002,439.658c-3.098-1.448-6.753-0.998-9.393,1.201c-33.668,27.966-84.489,44.668-135.945,44.668
			c-49.47,0-96.609-15.554-136.333-44.977c-3.919-2.904-9.445-2.083-12.35,1.836c-2.904,3.919-2.083,9.445,1.836,12.35
			c42.787,31.691,93.564,48.437,146.838,48.437c48.578,0,96.839-13.983,132.758-37.976v37.976c0,4.873,3.955,8.828,8.828,8.828
			s8.828-3.955,8.828-8.828v-55.534C406.069,444.213,404.092,441.097,401.002,439.658z"/>
	</g>
</g>
<g>
	<g>
		<path d="M71.15,391.601c-27.966-33.668-44.668-84.48-44.668-135.945c0-49.461,15.554-96.6,44.968-136.324
			c2.904-3.919,2.083-9.445-1.836-12.35c-3.919-2.913-9.445-2.083-12.35,1.836C25.573,151.605,8.828,202.381,8.828,255.656
			c0,48.578,13.983,96.839,37.976,132.758H8.828c-4.873,0-8.828,3.955-8.828,8.828s3.955,8.828,8.828,8.828h55.534
			c3.425,0,6.532-1.977,7.989-5.076S73.34,394.231,71.15,391.601z"/>
	</g>
</g>
<g>
	<g>
		<path d="M264.828,167.706c-0.009-4.873-3.964-8.81-8.828-8.81c0,0-0.009,0-0.018,0c-4.882,0.009-8.819,3.972-8.81,8.845
			l0.212,88.276c0.009,4.873,3.964,8.81,8.828,8.81c0.009,0,0.018,0,0.018,0c4.882-0.009,8.819-3.972,8.81-8.845L264.828,167.706z"
			/>
	</g>
</g>
<g>
	<g>
		<path d="M256.212,247.172h-53.177c-4.873,0-8.828,3.955-8.828,8.828s3.955,8.828,8.828,8.828h53.177
			c4.873,0,8.828-3.955,8.828-8.828S261.085,247.172,256.212,247.172z"/>
	</g>
</g>
<g>
	<g>
		<path d="M256,70.621C153.785,70.621,70.621,153.777,70.621,256S153.785,441.379,256,441.379
			c102.223,0,185.379-83.156,185.379-185.379S358.223,70.621,256,70.621z M256,423.724c-92.487,0-167.724-75.237-167.724-167.724
			S163.513,88.276,256,88.276S423.724,163.513,423.724,256S348.487,423.724,256,423.724z"/>
	</g>
</g>
<g>
	<g>
		<path d="M132.414,247.172h-17.655c-4.873,0-8.828,3.955-8.828,8.828s3.955,8.828,8.828,8.828h17.655
			c4.873,0,8.828-3.955,8.828-8.828S137.287,247.172,132.414,247.172z"/>
	</g>
</g>
<g>
	<g>
		<path d="M397.241,247.172h-17.655c-4.873,0-8.828,3.955-8.828,8.828s3.955,8.828,8.828,8.828h17.655
			c4.873,0,8.828-3.955,8.828-8.828S402.114,247.172,397.241,247.172z"/>
	</g>
</g>
<g>
	<g>
		<path d="M256,370.759c-4.873,0-8.828,3.955-8.828,8.828v17.655c0,4.873,3.955,8.828,8.828,8.828s8.828-3.955,8.828-8.828v-17.655
			C264.828,374.713,260.873,370.759,256,370.759z"/>
	</g>
</g>
<g>
	<g>
		<path d="M256,105.931c-4.873,0-8.828,3.955-8.828,8.828v17.655c0,4.873,3.955,8.828,8.828,8.828s8.828-3.955,8.828-8.828v-17.655
			C264.828,109.886,260.873,105.931,256,105.931z"/>
	</g>
</g>
<g>
	<g>
		<path d="M173.965,338.035c-3.443-3.452-9.031-3.452-12.482,0l-11.599,11.591c-3.443,3.443-3.443,9.031,0,12.482
			c1.721,1.721,3.981,2.586,6.241,2.586c2.26,0,4.52-0.856,6.241-2.586l11.599-11.591
			C177.408,347.074,177.408,341.486,173.965,338.035z"/>
	</g>
</g>
<g>
	<g>
		<path d="M362.108,149.892c-3.452-3.452-9.031-3.452-12.482,0l-11.591,11.591c-3.452,3.452-3.452,9.031,0,12.482
			c1.721,1.721,3.981,2.586,6.241,2.586c2.26,0,4.52-0.865,6.241-2.586l11.591-11.591
			C365.559,158.923,365.559,153.344,362.108,149.892z"/>
	</g>
</g>
<g>
	<g>
		<path d="M362.108,349.625l-11.591-11.591c-3.452-3.452-9.031-3.452-12.482,0c-3.452,3.452-3.452,9.031,0,12.482l11.591,11.591
			c1.721,1.721,3.981,2.586,6.241,2.586c2.26,0,4.52-0.856,6.241-2.586C365.559,358.656,365.559,353.077,362.108,349.625z"/>
	</g>
</g>
<g>
	<g>
		<path d="M173.965,161.483l-11.599-11.591c-3.443-3.452-9.031-3.452-12.482,0c-3.452,3.452-3.452,9.039,0,12.482l11.599,11.591
			c1.721,1.721,3.981,2.586,6.241,2.586c2.26,0,4.52-0.865,6.241-2.586C177.417,170.514,177.417,164.926,173.965,161.483z"/>
	</g>
</g>
<g>
</g>
<g>
</g>
<g>
</g>
<g>
</g>
<g>
</g>
<g>
</g>
<g>
</g>
<g>
</g>
<g>
</g>
<g>
</g>
<g>
</g>
<g>
</g>
<g>
</g>
<g>
</g>
<g>
</g>
</svg>
